<svg width="50" height="48" viewBox="0 0 50 48" fill="none" xmlns="http://www.w3.org/2000/svg">
<path d="M37.2738 2.19432C38.6185 1.18957 39.8489 0.503226 40.8555 0.196509C42.8647 -0.415706 45.2169 0.422055 47.1469 2.43766C48.4352 3.78302 48.6932 4.57638 48.1641 5.5665C47.9862 5.89931 48.0477 6.16702 48.4075 6.62515C48.6723 6.96234 48.8889 7.38852 48.8889 7.57211C48.8889 7.75595 49.0361 8.12264 49.216 8.38693C49.3959 8.65147 49.6731 9.25101 49.832 9.71889C50.0813 10.452 50.064 10.612 49.7072 10.8731C49.3185 11.1579 49.3194 11.2057 49.7247 11.654C50.1436 12.1178 50.1304 12.1426 49.2793 12.4989C48.7969 12.7007 48.4021 12.9814 48.4021 13.1223C48.4021 13.2659 47.8873 13.3785 47.2307 13.3785C46.2953 13.3785 45.7338 13.182 44.4451 12.4033C43.5572 11.8669 42.7065 11.428 42.5547 11.428C42.356 11.428 42.3354 11.8903 42.4804 13.0738C42.7214 15.0367 42.7172 16.3452 42.4602 19.5958C42.2862 21.7959 42.3317 22.3074 42.9275 24.8377C43.6207 27.7828 43.9147 31.6365 44.1569 40.9589C44.2506 44.5722 44.2104 45.3032 43.904 45.558C43.3878 45.9871 40.1758 45.7889 39.873 45.3093C39.5137 44.7407 39.5948 44.5613 40.3376 44.2804L41.0354 44.0166L40.9797 40.4616L40.9242 36.9065L39.7778 34.2246C38.4328 31.0777 37.9027 29.2118 38.0889 28.2794C38.2298 27.5731 37.6326 25.813 37.2519 25.813C36.7882 25.813 35.6952 28.8392 35.3751 31.0084C34.947 33.9118 33.7079 39.7352 33.1866 41.2951C32.9626 41.9656 32.4384 43.0528 32.0217 43.7111C31.4592 44.6003 31.2745 45.1632 31.3039 45.901C31.3626 47.3749 30.6813 48 29.0163 48C27.8342 48 27.6954 47.94 27.3552 47.2808C26.7323 46.0741 26.9852 45.292 27.7139 46.1714C28.2231 46.7861 28.3896 46.5854 28.2706 45.5009C28.1817 44.6907 28.3209 44.119 28.9087 42.8799C29.8229 40.9533 29.8251 40.7929 29.0375 33.9807C28.0878 25.7684 28.0875 25.764 28.5361 24.8953C29.0803 23.8413 29.065 23.0274 28.5049 23.2427C26.8935 23.8627 24.3084 24.3709 22.0741 24.5069L19.4584 24.6661L18.9331 25.7857C18.4303 26.8573 18.4208 27.0125 18.7138 29.3917C18.9017 30.9172 18.9424 32.2843 18.8192 32.9294C18.7087 33.5075 18.6415 34.8585 18.6703 35.9312C18.6987 37.004 18.5374 38.8819 18.3118 40.1043C18.0859 41.3268 17.9678 42.5005 18.0489 42.7127C18.2696 43.289 19.5482 43.863 20.973 44.0256C22.133 44.1577 23.5763 44.8565 23.5763 45.2856C23.5763 45.3837 23.1657 45.6131 22.6636 45.7954C21.6104 46.1782 13.9801 46.3501 13.2986 46.0066C12.4981 45.6028 12.308 44.8794 12.7267 43.831C13.2485 42.5247 13.2161 39.8503 12.6571 38.0505C12.3567 37.084 12.2435 36.1741 12.3219 35.3571C12.5164 33.331 12.3163 33.1715 11.0176 34.3167C10.4021 34.8595 9.00572 35.8201 7.9146 36.4518C6.82324 37.0833 5.80514 37.6947 5.6518 37.8106C4.99732 38.3048 6.869 41.9047 7.78025 41.9047C8.30719 41.9047 9.92257 42.9104 9.93425 43.2456C9.94837 43.6555 8.69418 44.099 7.52493 44.0975C5.37239 44.0951 4.68822 43.7367 3.37075 41.922C2.64398 40.9214 1.86416 40.1353 1.4117 39.9476C0.42986 39.5402 -0.0849109 38.7214 0.0114717 37.7203C0.076457 37.046 0.272143 36.8148 1.21309 36.3011C2.35167 35.6796 3.81007 34.1758 5.32931 32.0566C6.20941 30.829 7.75932 29.5753 9.27004 28.8692L10.1759 28.4459L9.79406 27.5563C8.90131 25.4765 8.44957 23.883 8.31547 22.3418C8.18452 20.8358 8.23734 20.5679 8.95242 19.113C9.44747 18.1053 10.0968 17.2369 10.7321 16.7327C11.2822 16.2958 12.5076 15.2159 13.4556 14.3326C16.0407 11.9242 17.2559 11.0957 19.8653 9.96295C21.1701 9.39658 22.7305 8.62466 23.3329 8.24748C24.5406 7.49142 25.8875 6.92772 29.5393 5.65013C30.878 5.18201 32.0828 4.71218 32.2166 4.60637C32.3505 4.50055 33.2571 4.12825 34.2314 3.77911C35.2055 3.42972 36.5745 2.71657 37.2738 2.19432Z" fill="currentColor"/>
</svg>
